<?xml version="1.0" encoding="UTF-8" standalone="no"?>
<!DOCTYPE svg PUBLIC "-//W3C//DTD SVG 1.1//EN" "http://www.w3.org/Graphics/SVG/1.1/DTD/svg11.dtd">
<svg width="100%" height="100%" viewBox="0 0 512 512" version="1.1" xmlns="http://www.w3.org/2000/svg" xmlns:xlink="http://www.w3.org/1999/xlink" xml:space="preserve" xmlns:serif="http://www.serif.com/" style="fill-rule:evenodd;clip-rule:evenodd;stroke-linejoin:round;stroke-miterlimit:2;">
    <g id="path5" transform="matrix(9.18325,0,0,11.9109,-700.332,-1615.66)">
        <path d="M83.028,160.192C85.524,157.233 89.804,148.627 91.513,146.726C95.986,141.75 98.604,141.075 114.438,140.812C120.696,140.708 126.567,140.602 127.486,140.577C129.676,140.516 129.675,140.486 127.602,143.535C124.204,148.536 126.187,147.942 112.288,148.117C96.046,148.321 93.639,149.076 88.12,155.703C86.676,157.438 82.648,160.643 83.028,160.192ZM91.856,160.376C93.674,159.82 95.641,159.502 97.837,159.546C97.837,159.546 96.173,163.438 95.03,166.115C93.887,168.793 93.127,170.163 93.029,170.471C92.886,170.924 92.566,171.452 91.337,171.589C88.329,171.924 79.135,173.928 79.135,173.672C79.135,173.672 80.602,173.152 80.968,172.533C81.713,171.274 82.153,169.507 83.601,166.119C89.36,152.643 90.843,151.795 109.147,151.501C115.549,151.398 121.103,151.13 121.516,151.13C123.168,151.13 121.732,155.274 119.029,157.023C115.72,159.163 114.015,158.211 104.649,158.424C95.753,158.626 95.098,158.726 91.856,160.376C90.175,161.232 91.856,160.376 91.856,160.376Z" style="fill:url(#_Linear1);fill-rule:nonzero;"/>
    </g>
    <defs>
        <linearGradient id="_Linear1" x1="0" y1="0" x2="1" y2="0" gradientUnits="userSpaceOnUse" gradientTransform="matrix(-18.3936,21.4271,-27.7914,-14.1814,110.997,143.26)"><stop offset="0" style="stop-color:rgb(59,130,246);stop-opacity:1"/><stop offset="1" style="stop-color:rgb(139,92,246);stop-opacity:1"/></linearGradient>
    </defs>
</svg>
